<?xml version="1.0" encoding="utf-8"?>
<!-- Generator: Adobe Illustrator 23.1.0, SVG Export Plug-In . SVG Version: 6.00 Build 0)  -->
<svg version="1.1" id="Layer_1" xmlns="http://www.w3.org/2000/svg" xmlns:xlink="http://www.w3.org/1999/xlink" x="0px" y="0px"
	 viewBox="0 0 425.2 339" style="enable-background:new 0 0 425.2 339;" xml:space="preserve">
<style type="text/css">
	.st0{fill:#A7A9AC;stroke:#000000;stroke-miterlimit:10;}
	.st1{fill:none;stroke:#000000;stroke-miterlimit:10;}
	.st2{fill:#E12827;}
	.st3{fill:#D12229;}
	.st4{fill:#0A71B6;}
	.st5{fill:#22A54C;}
</style>
<path class="st0" d="M355.3,99.2"/>
<path class="st1" d="M91.9,17.5"/>
<g>
	<path class="st2" d="M248.4,325.7H243l-2.1-5.6H231l-2,5.6h-5.3l9.6-24.5h5.2L248.4,325.7z M239.2,315.9l-3.4-9.1l-3.3,9.1H239.2z"
		/>
	<path class="st2" d="M262.7,325.7V323c-0.6,0.9-1.5,1.7-2.6,2.2c-1.1,0.5-2.2,0.8-3.3,0.8c-1.2,0-2.3-0.3-3.2-0.8
		c-0.9-0.5-1.6-1.3-2.1-2.2c-0.4-0.9-0.6-2.3-0.6-3.9v-11.2h4.7v8.2c0,2.5,0.1,4,0.3,4.6c0.2,0.6,0.5,1,0.9,1.3
		c0.5,0.3,1,0.5,1.7,0.5c0.8,0,1.5-0.2,2.2-0.7c0.6-0.4,1.1-1,1.3-1.6c0.2-0.7,0.4-2.3,0.4-4.8v-7.5h4.7v17.8H262.7z"/>
	<path class="st2" d="M280,307.9v3.7h-3.2v7.2c0,1.5,0,2.3,0.1,2.5c0.1,0.2,0.2,0.4,0.4,0.6c0.2,0.2,0.5,0.2,0.8,0.2
		c0.4,0,1.1-0.2,1.9-0.5l0.4,3.6c-1.1,0.5-2.3,0.7-3.7,0.7c-0.8,0-1.6-0.1-2.3-0.4c-0.7-0.3-1.2-0.7-1.5-1.1
		c-0.3-0.5-0.5-1.1-0.7-1.8c-0.1-0.5-0.2-1.7-0.2-3.3v-7.7H270v-3.7h2.2v-3.5l4.7-2.7v6.3H280z"/>
	<path class="st2" d="M282.2,316.5c0-1.6,0.4-3.1,1.2-4.5c0.8-1.5,1.9-2.6,3.3-3.3c1.4-0.8,3-1.2,4.7-1.2c2.7,0,4.9,0.9,6.6,2.6
		c1.7,1.7,2.6,4,2.6,6.6c0,2.7-0.9,4.9-2.6,6.7s-3.9,2.7-6.6,2.7c-1.6,0-3.2-0.4-4.7-1.1c-1.5-0.7-2.6-1.8-3.4-3.2
		C282.6,320.3,282.2,318.6,282.2,316.5z M287,316.8c0,1.8,0.4,3.1,1.3,4c0.8,0.9,1.9,1.4,3.1,1.4c1.2,0,2.3-0.5,3.1-1.4
		c0.8-0.9,1.2-2.3,1.2-4.1c0-1.7-0.4-3.1-1.2-4c-0.8-0.9-1.9-1.4-3.1-1.4c-1.2,0-2.3,0.5-3.1,1.4C287.5,313.7,287,315,287,316.8z"/>
	<path class="st2" d="M303.9,307.9h4.3v2.4c1.5-1.9,3.4-2.8,5.5-2.8c1.1,0,2.1,0.2,3,0.7c0.8,0.5,1.5,1.2,2.1,2.1
		c0.8-0.9,1.6-1.7,2.5-2.1c0.9-0.5,1.9-0.7,2.9-0.7c1.3,0,2.4,0.3,3.3,0.8c0.9,0.5,1.6,1.3,2,2.3c0.3,0.8,0.5,2,0.5,3.7v11.4h-4.7
		v-10.2c0-1.8-0.2-2.9-0.5-3.4c-0.4-0.7-1.1-1-2-1c-0.7,0-1.3,0.2-1.9,0.6c-0.6,0.4-1,1-1.3,1.8c-0.3,0.8-0.4,2-0.4,3.7v8.5h-4.7
		v-9.7c0-1.7-0.1-2.8-0.3-3.3c-0.2-0.5-0.4-0.9-0.8-1.1c-0.4-0.2-0.8-0.4-1.4-0.4c-0.7,0-1.4,0.2-2,0.6c-0.6,0.4-1,1-1.2,1.7
		c-0.3,0.7-0.4,2-0.4,3.7v8.6h-4.7V307.9z"/>
	<path class="st2" d="M338.2,313.3l-4.3-0.8c0.5-1.7,1.3-3,2.5-3.8c1.2-0.8,2.9-1.2,5.2-1.2c2.1,0,3.7,0.2,4.7,0.7
		c1,0.5,1.8,1.1,2.2,1.9c0.4,0.8,0.6,2.2,0.6,4.2l0,5.5c0,1.6,0.1,2.7,0.2,3.5c0.1,0.7,0.4,1.5,0.8,2.4h-4.7
		c-0.1-0.3-0.3-0.8-0.5-1.4c-0.1-0.3-0.1-0.5-0.2-0.6c-0.8,0.8-1.7,1.4-2.6,1.8c-0.9,0.4-1.9,0.6-2.9,0.6c-1.8,0-3.3-0.5-4.3-1.5
		c-1.1-1-1.6-2.2-1.6-3.8c0-1,0.2-1.9,0.7-2.7c0.5-0.8,1.2-1.4,2-1.8c0.9-0.4,2.1-0.8,3.7-1.1c2.2-0.4,3.7-0.8,4.6-1.2v-0.5
		c0-0.9-0.2-1.5-0.7-1.9c-0.4-0.4-1.3-0.6-2.5-0.6c-0.8,0-1.5,0.2-2,0.5C338.9,311.9,338.5,312.5,338.2,313.3z M344.5,317.1
		c-0.6,0.2-1.6,0.4-2.9,0.7s-2.2,0.6-2.6,0.8c-0.6,0.4-0.9,1-0.9,1.7c0,0.7,0.2,1.2,0.7,1.7c0.5,0.5,1.1,0.7,1.9,0.7
		c0.8,0,1.7-0.3,2.4-0.8c0.6-0.4,0.9-0.9,1.1-1.6c0.1-0.4,0.2-1.2,0.2-2.3V317.1z"/>
	<path class="st2" d="M361.9,307.9v3.7h-3.2v7.2c0,1.5,0,2.3,0.1,2.5c0.1,0.2,0.2,0.4,0.4,0.6c0.2,0.2,0.5,0.2,0.8,0.2
		c0.4,0,1.1-0.2,1.9-0.5l0.4,3.6c-1.1,0.5-2.3,0.7-3.7,0.7c-0.8,0-1.6-0.1-2.3-0.4c-0.7-0.3-1.2-0.7-1.5-1.1
		c-0.3-0.5-0.5-1.1-0.7-1.8c-0.1-0.5-0.2-1.7-0.2-3.3v-7.7h-2.2v-3.7h2.2v-3.5l4.7-2.7v6.3H361.9z"/>
	<path class="st2" d="M365.2,305.5v-4.4h4.7v4.4H365.2z M365.2,325.7v-17.8h4.7v17.8H365.2z"/>
	<path class="st2" d="M373.6,316.5c0-1.6,0.4-3.1,1.2-4.5c0.8-1.5,1.9-2.6,3.3-3.3c1.4-0.8,3-1.2,4.7-1.2c2.7,0,4.9,0.9,6.6,2.6
		c1.7,1.7,2.6,4,2.6,6.6c0,2.7-0.9,4.9-2.6,6.7s-3.9,2.7-6.6,2.7c-1.6,0-3.2-0.4-4.7-1.1c-1.5-0.7-2.6-1.8-3.4-3.2
		C374,320.3,373.6,318.6,373.6,316.5z M378.5,316.8c0,1.8,0.4,3.1,1.3,4c0.8,0.9,1.9,1.4,3.1,1.4c1.2,0,2.3-0.5,3.1-1.4
		c0.8-0.9,1.2-2.3,1.2-4.1c0-1.7-0.4-3.1-1.2-4c-0.8-0.9-1.9-1.4-3.1-1.4c-1.2,0-2.3,0.5-3.1,1.4C378.9,313.7,378.5,315,378.5,316.8
		z"/>
	<path class="st2" d="M411.8,325.7h-4.7v-9.1c0-1.9-0.1-3.2-0.3-3.7c-0.2-0.6-0.5-1-1-1.3c-0.5-0.3-1-0.5-1.6-0.5
		c-0.8,0-1.5,0.2-2.2,0.7c-0.6,0.4-1.1,1-1.3,1.8c-0.2,0.7-0.4,2.1-0.4,4.1v8.1h-4.7v-17.8h4.4v2.6c1.5-2,3.5-3,5.9-3
		c1,0,2,0.2,2.8,0.6c0.9,0.4,1.5,0.9,2,1.4c0.4,0.6,0.7,1.2,0.9,2c0.2,0.7,0.3,1.8,0.3,3.2V325.7z"/>
</g>
<path class="st3" d="M167,31.1H66v36.4h39v51.1c12.8,7,27.1,13.6,42.6,19.6V67.5h39.8v-19C187.4,40.9,184.3,31,167,31.1z"/>
<path class="st4" d="M299.4,31.1v78.3L259,44.7c-5.3-8.5-14.6-13.7-24.7-13.7h-36v123.3c15.1,3.9,30,6.9,44.2,9.1v-63.3l29.1,48.6
	l11.3,18.9c24,1,44.9-1,60.8-6.3V31.1H299.4z"/>
<g>
	<path class="st2" d="M41,286.1H29.5v-37.6H19.1v-10.7h32.3v10.7H41V286.1z"/>
	<path class="st2" d="M94,286.1H82.4v-19.7H69v19.7H57.5v-48.2H69v17.9h13.4v-17.9H94V286.1z"/>
	<path class="st2" d="M143,262c0,8.1-1.8,14.3-5.3,18.5c-3.5,4.2-8.7,6.3-15.4,6.3c-6.7,0-11.8-2.1-15.4-6.4
		c-3.6-4.2-5.3-10.4-5.3-18.5c0-8,1.8-14.2,5.3-18.4c3.5-4.2,8.7-6.3,15.5-6.3c6.8,0,11.9,2.1,15.4,6.3
		C141.2,247.7,143,253.8,143,262z M113.7,262c0,9.3,2.9,14,8.6,14c2.9,0,5.1-1.1,6.5-3.4c1.4-2.3,2.1-5.8,2.1-10.6
		c0-4.8-0.7-8.4-2.1-10.7c-1.4-2.3-3.6-3.4-6.4-3.4C116.6,247.9,113.7,252.6,113.7,262z"/>
	<path class="st2" d="M191.2,286.1h-15.1l-15.6-34h-0.3c0.4,5.3,0.6,9.4,0.6,12.2v21.7h-10.2v-48.2h15l15.5,33.5h0.2
		c-0.3-4.9-0.4-8.8-0.4-11.7v-21.8h10.3V286.1z"/>
	<path class="st2" d="M217.5,257.9h18.4v26c-5,1.9-10.5,2.9-16.5,2.9c-6.6,0-11.6-2.2-15.2-6.5c-3.6-4.3-5.4-10.5-5.4-18.4
		c0-7.8,2-13.8,5.9-18.2c3.9-4.3,9.4-6.5,16.5-6.5c2.7,0,5.2,0.3,7.6,0.9c2.4,0.6,4.5,1.3,6.2,2.2l-3.6,10.2
		c-3.1-1.7-6.4-2.6-10.1-2.6c-3.4,0-6,1.2-7.8,3.7c-1.8,2.5-2.8,6-2.8,10.6c0,4.5,0.8,7.9,2.5,10.3c1.7,2.4,4.1,3.5,7.2,3.5
		c1.7,0,3.3-0.2,4.7-0.6V268h-7.6V257.9z"/>
	<path class="st2" d="M285.1,286.1H270l-15.6-34h-0.3c0.4,5.3,0.6,9.4,0.6,12.2v21.7h-10.2v-48.2h15l15.5,33.5h0.2
		c-0.3-4.9-0.4-8.8-0.4-11.7v-21.8h10.3V286.1z"/>
	<path class="st2" d="M330.8,286.1h-11.6v-19.7h-13.4v19.7h-11.6v-48.2h11.6v17.9h13.4v-17.9h11.6V286.1z"/>
	<path class="st2" d="M366.1,286.1l-2.1-9h-13.8l-2.2,9h-12.6l13.9-48.4h15.3l14.1,48.4H366.1z M361.7,266.4l-1.8-7.9
		c-0.4-1.8-0.9-4-1.6-6.8c-0.6-2.8-1-4.8-1.2-6c-0.2,1.1-0.5,3-1,5.5c-0.5,2.6-1.7,7.6-3.4,15.2H361.7z"/>
	<path class="st2" d="M402.1,286.1h-11.5v-37.6h-10.4v-10.7h32.3v10.7h-10.4V286.1z"/>
</g>
<path class="st5" d="M356.6,99.2c0,0,23.7,26.2,19.3,42.3c-9.3,34-93.5,40.6-188.1,14.7C93.3,130.4,30.1,81.9,37.1,47.4
	c5.7-27.7,61.4-31.5,61.4-31.5S28.3,17,18.2,53.8C10.4,82,46.4,118.1,105,146.4v26.2h42.6v-8.5c11,3.9,22.4,7.5,34.2,10.7
	c101.1,27.7,192.7,22.9,203.2-20.5C391.1,129.2,356.6,99.2,356.6,99.2z"/>
</svg>
