<?xml version="1.0" encoding="utf-8"?>
<!-- Generator: Adobe Illustrator 23.1.0, SVG Export Plug-In . SVG Version: 6.00 Build 0)  -->
<svg version="1.1" id="Layer_1" xmlns="http://www.w3.org/2000/svg" xmlns:xlink="http://www.w3.org/1999/xlink" x="0px" y="0px"
	 viewBox="0 0 50 32.4" style="enable-background:new 0 0 50 32.4;" xml:space="preserve">
<style type="text/css">
	.st0{fill:#ED1C24;}
</style>
<path class="st0" d="M46.8,6.4H17c-1.8,0-3.2-1.4-3.2-3.2v0C13.8,1.4,15.2,0,17,0l29.8,0C48.6,0,50,1.4,50,3.2v0
	C50,5,48.6,6.4,46.8,6.4z"/>
<circle class="st0" cx="3.2" cy="3.2" r="3.2"/>
<path class="st0" d="M46.8,19.4H17c-1.8,0-3.2-1.4-3.2-3.2v0c0-1.8,1.4-3.2,3.2-3.2h29.8c1.8,0,3.2,1.4,3.2,3.2v0
	C50,18,48.6,19.4,46.8,19.4z"/>
<circle class="st0" cx="3.2" cy="16.2" r="3.2"/>
<path class="st0" d="M46.8,32.4H17c-1.8,0-3.2-1.4-3.2-3.2v0c0-1.8,1.4-3.2,3.2-3.2h29.8c1.8,0,3.2,1.4,3.2,3.2v0
	C50,30.9,48.6,32.4,46.8,32.4z"/>
<circle class="st0" cx="3.2" cy="29.1" r="3.2"/>
</svg>
